# xmcd CD database file
#
# Track frame offsets:
#	150
#	19805
#	36005
#	53275
#	68045
#	82010
#	99392
#	113949
#	131756
#	151618
#	170245
#	186242
#	201644
#	220251
#	234523
#
# Disc length: 3336 seconds
#
# Revision: 0
# Processed by: cddbd v1.5.1PL0 Copyright (c) Steve Scherf et al.
# Submitted via: CDex 1.51
#
DISCID=ce0d060f
DTITLE=Karen Staley - The Hits
DYEAR=2003
DGENRE=Country
TTITLE0=Keeper of the Stars
TTITLE1=On A Night Like This
TTITLE2=Half Over You
TTITLE3=Take Me As I Am
TTITLE4=Let's Go To Vegas
TTITLE5=Every Time I Cry
TTITLE6=The More I Learn
TTITLE7=Just Enuff Rope
TTITLE8=A Face In The Crowd
TTITLE9=Every Other Memory
TTITLE10=Across The Miles
TTITLE11=The Devil and Me
TTITLE12=Now and Then
TTITLE13=You Do Or You Don't
TTITLE14=Keep Walkin' On
EXTD=YEAR: 2003
EXTT0=
EXTT1=
EXTT2=
EXTT3=
EXTT4=
EXTT5=
EXTT6=
EXTT7=
EXTT8=
EXTT9=
EXTT10=
EXTT11=
EXTT12=
EXTT13=
EXTT14=
PLAYORDER=
